<svg xmlns="http://www.w3.org/2000/svg" xmlns:xlink="http://www.w3.org/1999/xlink" width="187.201" height="169.026" viewBox="0 0 187.201 169.026">
  <defs>
    <clipPath id="clip-path">
      <rect id="Rectangle_2459" data-name="Rectangle 2459" width="187.201" height="169.026" rx="5" fill="#fff"/>
    </clipPath>
    <linearGradient id="linear-gradient" x1="0.5" y1="0.032" x2="0.5" y2="1.032" gradientUnits="objectBoundingBox">
      <stop offset="0.222" stop-color="#19243c"/>
      <stop offset="1" stop-color="#5a5a78"/>
    </linearGradient>
    <linearGradient id="linear-gradient-2" x1="0.5" y1="-1.062" x2="0.5" y2="-0.062" gradientUnits="objectBoundingBox">
      <stop offset="0" stop-color="#e20c26"/>
      <stop offset="0.85" stop-color="#ff6d25"/>
    </linearGradient>
    <linearGradient id="linear-gradient-3" x1="0.5" y1="-2.375" x2="0.5" y2="-1.375" gradientUnits="objectBoundingBox">
      <stop offset="0" stop-color="#fff" stop-opacity="0"/>
      <stop offset="1" stop-color="#fff"/>
    </linearGradient>
    <linearGradient id="linear-gradient-4" x1="0.5" y1="-6.37" x2="0.5" y2="-5.37" xlink:href="#linear-gradient-3"/>
    <linearGradient id="linear-gradient-5" x1="0.5" y1="-1.38" x2="0.5" y2="-0.38" xlink:href="#linear-gradient-3"/>
    <linearGradient id="linear-gradient-6" x1="0.5" y1="-2.094" x2="0.5" y2="-1.094" gradientUnits="objectBoundingBox">
      <stop offset="0" stop-color="#fe9600"/>
      <stop offset="1" stop-color="#fff004"/>
    </linearGradient>
    <linearGradient id="linear-gradient-7" x1="0" y1="-1.969" x2="1" y2="-1.969" xlink:href="#linear-gradient-3"/>
    <linearGradient id="linear-gradient-8" x1="0.5" y1="-4.532" x2="0.5" y2="-3.533" xlink:href="#linear-gradient-3"/>
    <linearGradient id="linear-gradient-9" x1="0.5" y1="-12.926" x2="0.5" y2="-11.929" xlink:href="#linear-gradient-3"/>
    <linearGradient id="linear-gradient-10" x1="0.389" y1="-3.905" x2="0.573" y2="-2.879" xlink:href="#linear-gradient-3"/>
    <linearGradient id="linear-gradient-11" x1="0.5" y1="-7.074" x2="0.5" y2="-6.075" xlink:href="#linear-gradient-3"/>
    <linearGradient id="linear-gradient-12" x1="0.5" y1="-1.061" x2="0.5" y2="-0.061" xlink:href="#linear-gradient-2"/>
    <linearGradient id="linear-gradient-15" x1="0.5" y1="-1.38" x2="0.5" y2="-0.38" xlink:href="#linear-gradient-3"/>
    <linearGradient id="linear-gradient-17" x1="1" y1="-1.969" x2="0" y2="-1.969" xlink:href="#linear-gradient-3"/>
    <linearGradient id="linear-gradient-20" x1="0.611" y1="-3.905" x2="0.427" y2="-2.878" xlink:href="#linear-gradient-3"/>
    <linearGradient id="linear-gradient-22" x1="0.5" y1="0.063" x2="0.5" y2="1.063" gradientUnits="objectBoundingBox">
      <stop offset="0" stop-color="#004eff"/>
      <stop offset="0.85" stop-color="#00b4ff"/>
    </linearGradient>
    <linearGradient id="linear-gradient-23" x1="0" y1="0.53" x2="1" y2="0.53" xlink:href="#linear-gradient-3"/>
    <linearGradient id="linear-gradient-24" x1="0.5" y1="1.105" x2="0.5" y2="2.105" xlink:href="#linear-gradient-2"/>
    <linearGradient id="linear-gradient-25" x1="0.5" y1="1.431" x2="0.5" y2="2.431" xlink:href="#linear-gradient-3"/>
    <linearGradient id="linear-gradient-26" x1="0.5" y1="0.714" x2="0.5" y2="1.714" gradientUnits="objectBoundingBox">
      <stop offset="0.222" stop-color="#017dff"/>
      <stop offset="1" stop-color="#01ceff"/>
    </linearGradient>
    <linearGradient id="linear-gradient-27" x1="0.5" y1="0.612" x2="0.5" y2="1.612" xlink:href="#linear-gradient-26"/>
    <linearGradient id="linear-gradient-28" x1="0.5" y1="0.665" x2="0.5" y2="1.665" xlink:href="#linear-gradient-26"/>
    <linearGradient id="linear-gradient-29" x1="0.5" y1="0.623" x2="0.5" y2="1.623" xlink:href="#linear-gradient-26"/>
    <linearGradient id="linear-gradient-30" x1="0.5" y1="0.624" x2="0.5" y2="1.624" xlink:href="#linear-gradient-26"/>
    <linearGradient id="linear-gradient-31" x1="0.5" y1="0.634" x2="0.5" y2="1.635" xlink:href="#linear-gradient-26"/>
    <linearGradient id="linear-gradient-32" y1="2.345" x2="1" y2="2.345" gradientUnits="objectBoundingBox">
      <stop offset="0" stop-color="#fff"/>
      <stop offset="1" stop-color="#fff" stop-opacity="0"/>
    </linearGradient>
    <linearGradient id="linear-gradient-33" x1="0.5" y1="2.16" x2="0.5" y2="3.16" xlink:href="#linear-gradient-32"/>
    <linearGradient id="linear-gradient-34" x1="0.5" y1="1.68" x2="0.5" y2="2.68" xlink:href="#linear-gradient-32"/>
    <linearGradient id="linear-gradient-35" x1="0.5" y1="1.927" x2="0.5" y2="2.927" xlink:href="#linear-gradient-32"/>
    <linearGradient id="linear-gradient-36" x1="0.5" y1="2.142" x2="0.5" y2="3.142" xlink:href="#linear-gradient-32"/>
    <linearGradient id="linear-gradient-37" x1="0.5" y1="2.849" x2="0.5" y2="3.849" xlink:href="#linear-gradient-32"/>
  </defs>
  <g id="Mask_Group_41" data-name="Mask Group 41" clip-path="url(#clip-path)">
    <g id="Group_7354" data-name="Group 7354" transform="translate(6.567 58.988)">
      <path id="Path_20983" data-name="Path 20983" d="M26.972,3.224a5.028,5.028,0,0,1,8.975-.007L61.4,49.8l-12.485.014a11.691,11.691,0,0,1-4.175-.777,12.364,12.364,0,0,1-3.087-1.749l-.378-.308a38.853,38.853,0,0,1-3.27-3.023c-.456-.468-.925-.972-1.4-1.511a57.54,57.54,0,0,1-3.758-4.723,2.344,2.344,0,0,0-.84-.573,1.432,1.432,0,0,0-.5-.091,1.522,1.522,0,0,0-.424.063,2.212,2.212,0,0,0-.97.665l-.065.077c-1.18,1.651-2.377,3.2-3.569,4.618-.449.532-.886,1.036-1.31,1.5-.846.938-1.687,1.8-2.495,2.568a11.39,11.39,0,0,1-.957.819l-.157.119a12.108,12.108,0,0,1-3.211,1.721,11.6,11.6,0,0,1-3.81.658L1.533,49.88Z" transform="translate(-0.367 -0.11)" fill="url(#linear-gradient)"/>
      <path id="Path_20984" data-name="Path 20984" d="M31.268.7a4.778,4.778,0,0,1,4.207,2.589L60.636,49.35H55.66l-4.839.007H48.7a11.32,11.32,0,0,1-4.058-.756,11.608,11.608,0,0,1-3-1.707c-.033-.021-.059-.049-.091-.07-.091-.077-.189-.147-.287-.23a39.7,39.7,0,0,1-3.244-3c-.449-.468-.918-.965-1.393-1.5A57.24,57.24,0,0,1,32.884,37.4a2.77,2.77,0,0,0-.99-.693,1.8,1.8,0,0,0-.612-.112,1.777,1.777,0,0,0-.514.077,2.566,2.566,0,0,0-1.127.77h-.006c-1.283,1.806-2.5,3.359-3.615,4.688-.449.532-.879,1.029-1.3,1.491-.905,1-1.732,1.847-2.475,2.554a11.358,11.358,0,0,1-.931.8c-.052.042-.1.077-.15.112a11.607,11.607,0,0,1-3.127,1.672,11.084,11.084,0,0,1-3.705.637H11.951L6.858,49.4H1.9L27.061,3.267A4.812,4.812,0,0,1,31.268.7Zm0-.7A5.423,5.423,0,0,0,26.5,2.932L1.335,49.063.762,50.12h6.1l5.093-.008h2.377a11.838,11.838,0,0,0,3.908-.672,12.41,12.41,0,0,0,3.3-1.763c.052-.042.1-.084.163-.126.332-.259.665-.538.983-.84.821-.777,1.661-1.644,2.514-2.589.436-.483.879-.993,1.316-1.511,1.192-1.413,2.4-2.974,3.581-4.632l.052-.07a1.916,1.916,0,0,1,.808-.553,1.058,1.058,0,0,1,.736.021,2.183,2.183,0,0,1,.716.5,58.53,58.53,0,0,0,3.751,4.709c.469.532.945,1.043,1.414,1.526a38.439,38.439,0,0,0,3.3,3.051c.1.077.2.161.294.231.032.027.071.056.11.084a12.323,12.323,0,0,0,3.152,1.791,11.8,11.8,0,0,0,4.273.8h2.123l4.839-.007h6.109l-.573-1.05L36.049,2.946A5.438,5.438,0,0,0,31.268,0Z" transform="translate(-0.182)" fill="#fdfffe"/>
      <path id="Path_20985" data-name="Path 20985" d="M35.029,17.952c-1.745-2.638-3.693-2.638-5.432.007L5.121,53.245,7.9,53.238l5.093-.007,2.384-.007a11.259,11.259,0,0,0,3.705-.637,11.755,11.755,0,0,0,3.133-1.679c.052-.035.1-.077.15-.112q.489-.379.939-.8c.742-.707,1.569-1.554,2.475-2.554.417-.462.853-.959,1.3-1.491,1.12-1.329,2.332-2.876,3.615-4.688l.007.007a2.546,2.546,0,0,1,1.126-.777,1.7,1.7,0,0,1,.508-.077,1.8,1.8,0,0,1,.612.112,2.777,2.777,0,0,1,.99.693,58.436,58.436,0,0,0,3.738,4.695c.475.532.945,1.036,1.394,1.5a37.542,37.542,0,0,0,3.25,3l.28.23a.455.455,0,0,0,.091.07,11.612,11.612,0,0,0,3,1.707,11.349,11.349,0,0,0,4.064.756l2.117-.007,4.833-.008,2.781-.007Z" transform="translate(-1.226 -3.825)" fill="#232244" opacity="0.9" style="mix-blend-mode: normal;isolation: isolate"/>
      <path id="Path_20986" data-name="Path 20986" d="M10.505,41.143l.124-.07a7.488,7.488,0,0,1,3.7-.98,1.627,1.627,0,0,1,.183.007,7.518,7.518,0,0,1,2.285.413A8.427,8.427,0,0,1,20.2,42.836l.183.2s.11.125.137.168a5.1,5.1,0,0,1,1.576-.735,9.123,9.123,0,0,1,.358-2.428,2.376,2.376,0,0,1,.1-.329l.1-.266c.1-.245.208-.476.338-.728a7.169,7.169,0,0,1,3.276-3.429l.678-.335.143.608c.046.189.1.371.15.553l.091.322-.293.287-1.98,1.827a.189.189,0,0,0-.059.189l1.453,7.221a.2.2,0,0,0,.189.161.178.178,0,0,0,.137-.07l3.3-4.247.358.608a1.162,1.162,0,0,0,.313.294.893.893,0,0,0,.3.14l.691.2-.424.623c-.938,1.364-1.888,2.687-2.833,3.932-.716.931-1.25,1.616-1.745,2.211-1.14,1.4-2.26,2.673-3.315,3.785A16.88,16.88,0,0,1,22.144,54.8l-.2.175a15.636,15.636,0,0,1-4.305,2.554,12.326,12.326,0,0,1-1.244.42c-.195.056-.4.112-.6.161s-.345.077-.5.1c-.046.007-.091.021-.137.027l-.032.035-.215.008c-.15.007-.313.014-.475.014l-10.779.014-2.514.007Z" transform="translate(-0.273 -8.369)" fill="url(#linear-gradient-2)"/>
      <path id="Path_20987" data-name="Path 20987" d="M26.351,35.459c.046.2.1.392.157.588l-.059.056-1.974,1.819a.76.76,0,0,0-.221.707l.338,1.686.4,2,.71,3.527a.683.683,0,0,0,.664.573.648.648,0,0,0,.515-.259L29.25,43.1l.5-.643a.068.068,0,0,0,.026.035,1.558,1.558,0,0,0,.449.427,1.487,1.487,0,0,0,.43.2c-.983,1.434-1.921,2.729-2.82,3.911-.605.79-1.179,1.518-1.733,2.2-1.2,1.477-2.312,2.729-3.3,3.765a15.126,15.126,0,0,1-1.244,1.168l-.2.175a15.186,15.186,0,0,1-4.169,2.47,12.392,12.392,0,0,1-1.2.406c-.2.056-.391.112-.586.154a.067.067,0,0,1-.033.007c-.143.035-.293.07-.437.091-.1.021-.2.035-.293.056-.007.008-.007.008-.013.008h-.007c-.156.007-.313.014-.468.014l-2.384.007-5.093.007-3.3.008-1.661.007,4-7.333c.033.2.078.4.124.588-.013-.2-.013-.406-.013-.608,0-.063,0-.126.006-.189l1.446-2.644,2.143-3.933.007-.007,1.159-2.12a7.1,7.1,0,0,1,3.478-.923,1.044,1.044,0,0,1,.143.007,7.094,7.094,0,0,1,2.175.392,7.869,7.869,0,0,1,3.2,2.19c.078.077.15.168.221.252s.156.189.234.294l.013.014a4.549,4.549,0,0,0-1,1.806,4.354,4.354,0,0,1,1.12-1.652.685.685,0,0,1,.078-.062l.163-.133a4.582,4.582,0,0,1,1.609-.763,5.373,5.373,0,0,0,.163.826,4.89,4.89,0,0,0,.43,1.063,8.532,8.532,0,0,1-.3-2.26,8.39,8.39,0,0,1,.338-2.386.077.077,0,0,0,.007-.035c.026-.09.046-.168.078-.252.014-.028.027-.077.046-.112.02-.056.046-.119.065-.175.084-.182.183-.406.313-.658a6.633,6.633,0,0,1,3.048-3.2A.623.623,0,0,1,26.351,35.459Zm.658-1.483-1.068.532-.059.028-.091.042a7.675,7.675,0,0,0-3.511,3.673c-.124.245-.234.483-.319.678l-.019.049-.02.049-.02.049c-.013.028-.019.056-.033.084s-.019.056-.032.084a3.346,3.346,0,0,0-.118.364l-.019.056-.007.042a9.7,9.7,0,0,0-.351,2.12,4.66,4.66,0,0,0-.665.28,3.456,3.456,0,0,0-.345.189l-.071-.077a8.868,8.868,0,0,0-3.588-2.442,8,8,0,0,0-2.443-.447,1.455,1.455,0,0,0-.182-.008,7.922,7.922,0,0,0-3.927,1.043l-.248.14-.143.259L8.636,42.771l-.065.119L6.428,46.822,4.982,49.467l-.117.218-4,7.326L0,58.591l1.713-.007,1.661-.007,3.3-.007,5.093-.008,2.384-.007c.163,0,.326-.007.494-.014h.378l.071-.07h.013c.157-.028.319-.063.469-.1h.013c.013,0,.02-.007.033-.007h.013c.2-.049.4-.1.606-.161a12.584,12.584,0,0,0,1.289-.434,16.056,16.056,0,0,0,4.423-2.624l.221-.189c.4-.342.84-.748,1.309-1.231,1.075-1.126,2.2-2.414,3.354-3.827.5-.595,1.036-1.281,1.752-2.218.958-1.259,1.915-2.589,2.853-3.953l.853-1.245-1.387-.392a.577.577,0,0,1-.157-.07.754.754,0,0,1-.2-.183l-.013-.014-.7-1.133L29,41.763l-.494.644-1.98,2.546-.58-2.882-.4-2-.307-1.5,1.837-1.694.065-.056.482-.448-.183-.651c-.052-.182-.1-.357-.144-.538Z" transform="translate(0 -8.136)" fill="#fff"/>
      <g id="Group_7352" data-name="Group 7352" transform="translate(6.852 27.512)" opacity="0.7">
        <path id="Path_20988" data-name="Path 20988" d="M21.794,45.543l-.13.133a5.854,5.854,0,0,0-3.439-1.141c-3.661,0-6.63,3.533-6.63,7.893a7.517,7.517,0,0,0,.046.861L9.015,53.03c-.006-.168-.006-.336-.006-.511a10.635,10.635,0,0,1,.423-2.952l2.143-3.932a6.928,6.928,0,0,1,5.1-2.477A6.881,6.881,0,0,1,21.794,45.543Z" transform="translate(-9.009 -37.846)" opacity="0.7" fill="url(#linear-gradient-3)" style="mix-blend-mode: normal;isolation: isolate"/>
        <path id="Path_20989" data-name="Path 20989" d="M28.035,45.915a2.594,2.594,0,0,0-.892.678,3.537,3.537,0,0,0-.834,2.463l-.808-.581a3.818,3.818,0,0,1,.853-1.77,2.86,2.86,0,0,1,1.667-.973Z" transform="translate(-12.958 -38.463)" opacity="0.7" fill="url(#linear-gradient-4)" style="mix-blend-mode: normal;isolation: isolate"/>
        <path id="Path_20990" data-name="Path 20990" d="M32.4,44.732l-2.031.147a8.611,8.611,0,0,1,.821-6.214A6.672,6.672,0,0,1,33.6,36.174l.065.448-1.974,1.819a.759.759,0,0,0-.221.707l.338,1.686A7.541,7.541,0,0,0,32.4,44.732Z" transform="translate(-14.064 -36.174)" opacity="0.7" fill="url(#linear-gradient-5)" style="mix-blend-mode: normal;isolation: isolate"/>
      </g>
      <path id="Path_20991" data-name="Path 20991" d="M22.053,57.856a11.541,11.541,0,0,1-3.133,1.679,11.267,11.267,0,0,1-3.706.637l-2.384.007h-.208l-4.885.007-3.3.008a7.7,7.7,0,0,1,5.75-6.773c-.013.14-.013.28-.013.42a6.134,6.134,0,0,0,.215,1.637c-.007-.14-.014-.28-.014-.42a6.841,6.841,0,0,1,1.088-3.737c-.02.035-.033.063-.052.1.033-.056.065-.112.1-.175,0-.007.007-.007.007-.014a2.15,2.15,0,0,1,.176-.259,6.1,6.1,0,0,1,.528-.651,2.564,2.564,0,0,1,.182-.182c.072-.07.144-.133.215-.2A5.854,5.854,0,0,1,16.556,48.4a.481.481,0,0,1,.1.008,5.494,5.494,0,0,1,1.635.265A5.929,5.929,0,0,1,20.7,50.152c.059.056.111.112.17.167s.117.133.176.2l.013.014a2.97,2.97,0,0,0-.755,1.224,2.932,2.932,0,0,1,.84-1.12l.059-.042a1.416,1.416,0,0,0,.123-.09,3.755,3.755,0,0,1,.515-.28,3.919,3.919,0,0,1,.7-.231,3.519,3.519,0,0,0,.124.56,2.981,2.981,0,0,0,.326.721,5.41,5.41,0,0,1-.221-1.532,5.144,5.144,0,0,1,.254-1.624c.007-.007.007-.014.007-.027a.8.8,0,0,1,.059-.168.577.577,0,0,1,.032-.077c.013-.035.033-.078.052-.119.065-.125.137-.28.234-.448A4.749,4.749,0,0,1,25.7,45.107c.065-.027.13-.056.2-.091a1.528,1.528,0,0,1,.163-.056l.319,1.6.013.07.377,1.868a.664.664,0,0,0,1.18.315l2.371-3.057a5.042,5.042,0,0,1,1.348,1.714,2.546,2.546,0,0,0-1.126.777l-.007-.007c-1.289,1.8-2.5,3.359-3.614,4.688-.449.532-.88,1.035-1.3,1.49-.905,1-1.733,1.847-2.475,2.554-.3.28-.606.546-.932.8Z" transform="translate(-1.062 -10.766)" fill="url(#linear-gradient-6)"/>
      <path id="Path_20992" data-name="Path 20992" d="M35.025,47.959a2.55,2.55,0,0,0-1.127.777l-.006-.008c-1.29,1.806-2.5,3.359-3.615,4.689-.449.532-.879,1.035-1.3,1.49-.906,1-1.733,1.847-2.476,2.554-.3.28-.605.546-.931.8l-.15.119a11.552,11.552,0,0,1-3.133,1.679,11.267,11.267,0,0,1-3.706.637h-.117a10.378,10.378,0,0,0,3.661-.685A11.031,11.031,0,0,0,25.217,58.2l.15-.125c.319-.266.625-.553.925-.854q1.1-1.133,2.449-2.736c.417-.49.84-1.028,1.29-1.6,1.107-1.428,2.305-3.092,3.575-5.03l.007.007a2.7,2.7,0,0,1,.905-.749A5.4,5.4,0,0,1,35.025,47.959Z" transform="translate(-4.421 -11.282)" fill="url(#linear-gradient-7)"/>
      <path id="Path_20993" data-name="Path 20993" d="M22.87,51.6l-.1.084a4.714,4.714,0,0,0-2.58-.77,5.177,5.177,0,0,0-4.982,5.353,5.746,5.746,0,0,0,.033.588l-1.974-.175c-.006-.113-.006-.231-.006-.35,0-3.359,2.638-6.354,5.763-6.354A5.408,5.408,0,0,1,22.87,51.6Z" transform="translate(-3.176 -11.967)" fill="url(#linear-gradient-8)"/>
      <path id="Path_20994" data-name="Path 20994" d="M27.557,51.848a1.95,1.95,0,0,0-.671.462,2.26,2.26,0,0,0-.625,1.672l-.606-.392a2.507,2.507,0,0,1,.645-1.2,2.252,2.252,0,0,1,1.25-.665Z" transform="translate(-6.143 -12.385)" fill="url(#linear-gradient-9)"/>
      <path id="Path_20995" data-name="Path 20995" d="M30.829,51.051l-1.523.1a5.376,5.376,0,0,1,.611-4.219,4.8,4.8,0,0,1,1.818-1.694l.059.378a4.506,4.506,0,0,0-.736.889A4.721,4.721,0,0,0,30.829,51.051Z" transform="translate(-6.973 -10.832)" fill="url(#linear-gradient-10)"/>
      <path id="Path_20996" data-name="Path 20996" d="M10.182,56.433c-.006.077-.006.14-.006.2a4.624,4.624,0,0,0-2.365,4.108,3.576,3.576,0,0,0,.033.525,6.416,6.416,0,0,0-.02.783l-2.181-.007A7.756,7.756,0,0,1,7.694,58.07,7.26,7.26,0,0,1,10.182,56.433Z" transform="translate(-1.351 -13.513)" fill="url(#linear-gradient-11)"/>
      <path id="Path_20997" data-name="Path 20997" d="M68.474,58.312,57.695,58.3c-.163,0-.332-.007-.494-.014l-.189-.014-.026-.021c-.059-.014-.117-.021-.17-.035a4.437,4.437,0,0,1-.449-.1l-.085-.021c-.156-.034-.358-.091-.56-.147a12.325,12.325,0,0,1-1.244-.42,15.354,15.354,0,0,1-4.292-2.546l-.208-.183A16.813,16.813,0,0,1,48.7,53.6c-1.062-1.12-2.182-2.393-3.321-3.793-.488-.594-1.029-1.28-1.745-2.211-.945-1.245-1.9-2.568-2.833-3.932l-.424-.623.691-.2a1.035,1.035,0,0,0,.293-.132,1.083,1.083,0,0,0,.319-.308l.371-.518.417.462,2.872,3.695a.17.17,0,0,0,.137.07.2.2,0,0,0,.189-.161l1.452-7.214a.215.215,0,0,0-.059-.2l-2.038-1.882-.235-.224.091-.322c.052-.189.1-.378.15-.56l.144-.608.684.335a7.178,7.178,0,0,1,3.276,3.436c.124.244.228.475.313.672l.1.28a2.557,2.557,0,0,1,.111.343l.013.077a8.686,8.686,0,0,1,.345,2.371,4.962,4.962,0,0,1,.938.357,5.36,5.36,0,0,1,.638.378c.027-.035.137-.161.137-.161.065-.07.13-.147.2-.217a8.3,8.3,0,0,1,3.387-2.3,7.434,7.434,0,0,1,2.325-.42c.027,0,.091-.007.15-.007a7.472,7.472,0,0,1,3.7.98l.124.07,9.366,17.178Z" transform="translate(-9.668 -8.367)" fill="url(#linear-gradient-12)"/>
      <path id="Path_20998" data-name="Path 20998" d="M45.247,35.459a1.4,1.4,0,0,0,.15.07,6.668,6.668,0,0,1,3.048,3.2c.124.253.228.469.313.658.02.056.046.119.065.175.013.035.033.084.046.112a2.362,2.362,0,0,1,.078.253.084.084,0,0,1,.006.035,8.421,8.421,0,0,1,.339,2.386,8.531,8.531,0,0,1-.3,2.26,4.242,4.242,0,0,0,.43-1.063,5.284,5.284,0,0,0,.163-.826,4.387,4.387,0,0,1,.925.343,4.739,4.739,0,0,1,.684.42c.052.042.111.091.163.133a.571.571,0,0,1,.078.063,4.483,4.483,0,0,1,1.12,1.651,4.592,4.592,0,0,0-1-1.806l.013-.014.234-.294c.072-.078.144-.168.222-.253a7.932,7.932,0,0,1,3.2-2.19,7.053,7.053,0,0,1,2.175-.392.869.869,0,0,1,.144-.008,7.113,7.113,0,0,1,3.477.924l1.16,2.12.006.008,2.143,3.932L65.775,50a1.734,1.734,0,0,1,.007.189c0,.2-.007.406-.014.608.046-.2.091-.392.124-.587l4,7.332-1.661-.007-3.3-.007-5.093-.007-2.384-.008c-.157,0-.313-.007-.469-.014h-.006a.021.021,0,0,1-.014-.007c-.1-.014-.2-.035-.293-.056-.143-.028-.293-.056-.437-.09a.061.061,0,0,0-.032-.008c-.2-.049-.391-.1-.586-.154a11.445,11.445,0,0,1-1.2-.406,15.114,15.114,0,0,1-4.169-2.469l-.2-.175c-.43-.364-.84-.756-1.244-1.169-.983-1.035-2.084-2.281-3.3-3.764-.56-.672-1.126-1.406-1.733-2.2-.9-1.183-1.837-2.477-2.82-3.911a1.5,1.5,0,0,0,.43-.2,1.763,1.763,0,0,0,.449-.427c.013-.014.02-.027.027-.035l.494.644,2.371,3.057a.631.631,0,0,0,.515.259.683.683,0,0,0,.664-.574l.71-3.527.4-2,.339-1.686a.765.765,0,0,0-.222-.707l-1.973-1.819-.059-.056C45.143,35.851,45.194,35.655,45.247,35.459Zm-.658-1.483L44.3,35.2c-.046.182-.091.364-.143.538l-.183.651.482.447.059.056,1.843,1.7-.306,1.5-.4,2-.58,2.876-1.98-2.547-.5-.643-.84-1.078-.7,1.14-.007.014a.784.784,0,0,1-.169.168.485.485,0,0,1-.176.084l-1.387.392.853,1.246c.938,1.371,1.9,2.7,2.852,3.953.723.945,1.264,1.63,1.759,2.225,1.152,1.407,2.272,2.694,3.341,3.813a16.536,16.536,0,0,0,1.329,1.246l.189.168a16.156,16.156,0,0,0,4.448,2.638,11.823,11.823,0,0,0,1.289.434c.183.049.378.1.567.154l.027.007.059.014h.006c.157.035.313.07.469.1l.065.07.4.008c.169.007.332.014.5.014l2.377.007,5.093.007,3.3.008,1.661.007,1.713.007-.866-1.581-4-7.326-.117-.217L65.176,46.85l-2.142-3.933-.065-.112-.006-.007L61.868,40.79l-.144-.259-.247-.14a7.922,7.922,0,0,0-3.927-1.043,1.634,1.634,0,0,0-.183.007,7.925,7.925,0,0,0-2.435.441,8.844,8.844,0,0,0-3.6,2.442l-.072.077c-.117-.07-.227-.133-.338-.189a4.949,4.949,0,0,0-.671-.28,9.684,9.684,0,0,0-.352-2.134c-.006-.021-.013-.043-.019-.07a2.853,2.853,0,0,0-.117-.357.751.751,0,0,0-.04-.1.4.4,0,0,0-.033-.084l-.019-.049-.013-.043-.02-.056c-.091-.2-.2-.441-.332-.707a7.608,7.608,0,0,0-3.51-3.653l-.078-.035-.059-.028Z" transform="translate(-9.412 -8.136)" fill="#fff"/>
      <path id="Path_20999" data-name="Path 20999" d="M55.945,45.543l.131.133a5.856,5.856,0,0,1,3.438-1.14c3.66,0,6.63,3.533,6.63,7.892a7.5,7.5,0,0,1-.046.861l2.625-.259c.007-.167.007-.335.007-.51a10.612,10.612,0,0,0-.424-2.953l-2.142-3.932a6.585,6.585,0,0,0-10.219-.091Z" transform="translate(-13.396 -10.334)" fill="url(#linear-gradient-3)"/>
      <path id="Path_21000" data-name="Path 21000" d="M52.923,45.915a2.6,2.6,0,0,1,.892.679,3.536,3.536,0,0,1,.834,2.463l.808-.58a3.817,3.817,0,0,0-.853-1.771,2.86,2.86,0,0,0-1.667-.973Z" transform="translate(-12.673 -10.951)" fill="url(#linear-gradient-4)"/>
      <path id="Path_21001" data-name="Path 21001" d="M48.252,44.732l2.031.147a8.609,8.609,0,0,0-.821-6.213,6.675,6.675,0,0,0-2.409-2.492l-.065.448,1.974,1.819a.759.759,0,0,1,.221.707l-.338,1.686A7.685,7.685,0,0,1,48.252,44.732Z" transform="translate(-11.252 -8.662)" fill="url(#linear-gradient-15)"/>
      <path id="Path_21002" data-name="Path 21002" d="M51.137,57.856a11.552,11.552,0,0,0,3.133,1.679,11.267,11.267,0,0,0,3.706.637l2.384.007h.208l4.885.007,3.3.008A7.7,7.7,0,0,0,63,53.42c.013.14.013.28.013.42a6.165,6.165,0,0,1-.214,1.637c.006-.14.013-.28.013-.42a6.847,6.847,0,0,0-1.088-3.737c.019.035.032.063.052.1-.033-.056-.065-.112-.1-.175,0-.007-.007-.007-.007-.014a2.15,2.15,0,0,0-.176-.259,6.193,6.193,0,0,0-.527-.651,2.574,2.574,0,0,0-.183-.182c-.071-.07-.144-.133-.215-.2A5.854,5.854,0,0,0,56.634,48.4a.481.481,0,0,0-.1.008,5.494,5.494,0,0,0-1.635.265,5.934,5.934,0,0,0-2.409,1.484c-.059.056-.111.112-.17.167s-.117.133-.176.2l-.013.014a2.97,2.97,0,0,1,.755,1.224,2.938,2.938,0,0,0-.84-1.12l-.059-.042a1.315,1.315,0,0,1-.124-.09,3.712,3.712,0,0,0-.515-.28,3.919,3.919,0,0,0-.7-.231,3.439,3.439,0,0,1-.124.56,2.952,2.952,0,0,1-.326.721,5.41,5.41,0,0,0,.221-1.532,5.144,5.144,0,0,0-.254-1.624c-.006-.007-.006-.014-.006-.027a.85.85,0,0,0-.059-.168.718.718,0,0,0-.033-.077c-.013-.035-.033-.078-.052-.119-.065-.125-.137-.28-.234-.448a4.744,4.744,0,0,0-2.292-2.169c-.065-.027-.131-.056-.2-.091a1.472,1.472,0,0,0-.163-.056l-.313,1.574-.013.07-.378,1.869a.663.663,0,0,1-1.179.315L42.872,45.73a5.053,5.053,0,0,0-1.348,1.714,2.546,2.546,0,0,1,1.127.777l.006-.007c1.29,1.806,2.5,3.359,3.615,4.688.449.532.879,1.036,1.3,1.491.905,1,1.733,1.847,2.475,2.554.3.28.605.545.932.8Z" transform="translate(-9.943 -10.766)" fill="url(#linear-gradient-6)"/>
      <path id="Path_21003" data-name="Path 21003" d="M41.524,47.959a2.544,2.544,0,0,1,1.127.777l.006-.008c1.29,1.806,2.5,3.359,3.615,4.689.449.532.879,1.035,1.3,1.49.905,1,1.733,1.847,2.475,2.554.3.28.605.546.932.8l.15.119a11.53,11.53,0,0,0,3.133,1.679,11.262,11.262,0,0,0,3.705.637h.117a10.374,10.374,0,0,1-3.66-.685A11.035,11.035,0,0,1,51.333,58.2l-.15-.125c-.319-.266-.625-.553-.925-.854q-1.1-1.133-2.449-2.736c-.417-.49-.84-1.028-1.289-1.6-1.107-1.428-2.306-3.092-3.576-5.03l-.006.007a2.7,2.7,0,0,0-.906-.749A5.461,5.461,0,0,0,41.524,47.959Z" transform="translate(-9.943 -11.282)" fill="url(#linear-gradient-17)"/>
      <path id="Path_21004" data-name="Path 21004" d="M55.869,51.6l.1.084a4.71,4.71,0,0,1,2.579-.77,5.177,5.177,0,0,1,4.982,5.353,5.746,5.746,0,0,1-.033.588l1.974-.175c.006-.113.006-.231.006-.35,0-3.359-2.638-6.354-5.763-6.354A5.408,5.408,0,0,0,55.869,51.6Z" transform="translate(-13.378 -11.967)" fill="url(#linear-gradient-8)"/>
      <path id="Path_21005" data-name="Path 21005" d="M53.6,51.848a1.957,1.957,0,0,1,.671.462,2.266,2.266,0,0,1,.625,1.672l.605-.392a2.5,2.5,0,0,0-.645-1.2,2.25,2.25,0,0,0-1.25-.665Z" transform="translate(-12.835 -12.385)" fill="url(#linear-gradient-9)"/>
      <path id="Path_21006" data-name="Path 21006" d="M50.085,51.051l1.523.1A5.373,5.373,0,0,0,51,46.93a4.788,4.788,0,0,0-1.817-1.694l-.059.378a4.506,4.506,0,0,1,.736.889A4.705,4.705,0,0,1,50.085,51.051Z" transform="translate(-11.762 -10.832)" fill="url(#linear-gradient-20)"/>
      <path id="Path_21007" data-name="Path 21007" d="M70.153,56.433c.007.077.007.14.007.2a4.624,4.624,0,0,1,2.365,4.108,3.576,3.576,0,0,1-.033.525,6.267,6.267,0,0,1,.019.783l2.182-.007a7.756,7.756,0,0,0-2.051-3.975A7.321,7.321,0,0,0,70.153,56.433Z" transform="translate(-16.798 -13.513)" fill="url(#linear-gradient-11)"/>
      <path id="Path_21008" data-name="Path 21008" d="M43.394,42.432a.987.987,0,0,1-.775-.392L39.91,38.555a1.9,1.9,0,0,1-2.71,0L34.491,42.04a.979.979,0,0,1-.782.392,1.038,1.038,0,0,1-1-.868l-1.491-7.41a1.125,1.125,0,0,1,.332-1.056l1.922-1.763.006.014.007-.007a15,15,0,0,1-.567-4.023c0-6.689,4.852-12.042,5.405-12.63l.228-.245.234.245c.554.595,5.406,5.954,5.406,12.636a15.115,15.115,0,0,1-.554,3.975l.007.007-.033.119.039-.07L45.557,33.1a1.145,1.145,0,0,1,.332,1.064L44.4,41.578A1.039,1.039,0,0,1,43.394,42.432Z" transform="translate(-7.469 -3.459)" fill="url(#linear-gradient-22)"/>
      <path id="Path_21009" data-name="Path 21009" d="M38.453,14.761c.065.07,5.308,5.584,5.308,12.385a14.719,14.719,0,0,1-.612,4.128l.013.007a6.554,6.554,0,0,1-1.367,2.441,6.228,6.228,0,0,0,1.831-2.008l1.621,1.491a.753.753,0,0,1,.221.72l-.755,3.737-.736,3.673a.71.71,0,0,1-.684.588.666.666,0,0,1-.528-.266l-2.371-3.044-.58-.748a1.624,1.624,0,0,1-2.736,0l-.508.658-2.429,3.134a.666.666,0,0,1-.528.266.71.71,0,0,1-.684-.588L32.2,37.711l-.762-3.785a.786.786,0,0,1,.221-.72l1.635-1.5a6.15,6.15,0,0,0,1.8,1.994,6.628,6.628,0,0,1-1.348-2.414l.006-.007a14.677,14.677,0,0,1-.612-4.128C33.145,20.351,38.387,14.838,38.453,14.761Zm0-.98-.462.49c-.567.6-5.5,6.06-5.5,12.882a15.275,15.275,0,0,0,.521,3.89l-.143.133-1.635,1.5a1.508,1.508,0,0,0-.437,1.407l.762,3.785.729,3.625a1.366,1.366,0,0,0,1.323,1.14,1.3,1.3,0,0,0,1.029-.518l2.436-3.134.071-.091a2.184,2.184,0,0,0,2.612,0l.137.182,2.371,3.044a1.3,1.3,0,0,0,1.029.518A1.376,1.376,0,0,0,44.614,41.5l.736-3.681.755-3.736a1.494,1.494,0,0,0-.437-1.4L44.047,31.19l-.13-.119.02-.063-.027-.021a15.339,15.339,0,0,0,.5-3.827c0-6.829-4.937-12.28-5.5-12.881Z" transform="translate(-7.366 -3.3)" fill="#fff"/>
      <path id="Path_21010" data-name="Path 21010" d="M45.255,34.041l-1.127-1.036a5.9,5.9,0,0,1-2.214,1.484,6.156,6.156,0,0,0,1.778-1.882l-.443-.406a14.138,14.138,0,0,0,.586-3.946c0-6.507-5.021-11.791-5.08-11.86-.065.062-5.08,5.345-5.08,11.86a14.11,14.11,0,0,0,.586,3.946l-.449.413A6.124,6.124,0,0,0,35.583,34.5a5.894,5.894,0,0,1-2.208-1.476l-1.12,1.028a.758.758,0,0,0-.215.693l.73,3.632.7,3.47a.651.651,0,0,0,1.159.308l2.332-3,.488-.63a1.558,1.558,0,0,0,2.619,0l.56.713,2.266,2.918a.651.651,0,0,0,1.16-.308l.71-3.52.723-3.575A.785.785,0,0,0,45.255,34.041Z" transform="translate(-7.668 -3.926)" opacity="0.4" fill="url(#linear-gradient-23)" style="mix-blend-mode: normal;isolation: isolate"/>
      <path id="Path_21011" data-name="Path 21011" d="M39.928,31.5a3.262,3.262,0,1,1,3.028-3.254A3.15,3.15,0,0,1,39.928,31.5Z" transform="translate(-8.836 -5.986)" fill="url(#linear-gradient-24)"/>
      <path id="Path_21012" data-name="Path 21012" d="M39.826,25.227a2.911,2.911,0,1,1-2.7,2.9A2.811,2.811,0,0,1,39.826,25.227Zm0-.7a3.613,3.613,0,1,0,3.354,3.6A3.49,3.49,0,0,0,39.826,24.527Z" transform="translate(-8.733 -5.873)" fill="#fff"/>
      <path id="Path_21013" data-name="Path 21013" d="M40.146,31a2.518,2.518,0,1,0-2.338-2.512A2.429,2.429,0,0,0,40.146,31Z" transform="translate(-9.053 -6.219)" fill="url(#linear-gradient-25)"/>
      <path id="Path_21014" data-name="Path 21014" d="M105.667,29.467c-.925-3.232-1.954-6.43-3.016-9.614-.768-2.309-1.55-4.611-2.318-6.927-.15-.462-.306-.916-.456-1.378-.313-.945-.618-1.889-.925-2.841l-.41-1.3c-.02-.056-.033-.112-.052-.167a.388.388,0,0,1-.026-.078A6.464,6.464,0,0,0,96.36,4.2a5.852,5.852,0,0,0-3.478-1.239h-.117a5.671,5.671,0,0,0-4.956,3.1c-.046.077-.084.161-.124.245l-.019.042c-.02.035-.033.07-.052.1l-4.279,9.558-5.308,11.86a.177.177,0,0,0,.084.238l4.9,1.98a2.941,2.941,0,0,0,3.771-1.6l.912-1.966a2.918,2.918,0,0,1,2.625-1.749h2.9a3.332,3.332,0,0,1,3.094,2.267l.651,1.784a3.135,3.135,0,0,0,3.673,2.078l4.918-1.21A.193.193,0,0,0,105.667,29.467ZM94.523,19.111l-4.279-.035a.211.211,0,0,1-.2-.287l.482-1.336,1.934-5.367a.062.062,0,0,1,.117.007l.084.259.945,2.981.925,2.911.2.609A.208.208,0,0,1,94.523,19.111Z" transform="translate(-18.679 -0.709)" fill="#245eb2"/>
      <path id="Path_21015" data-name="Path 21015" d="M125.7,12.889a4.788,4.788,0,0,0-4.468,3.225l.033-2.924v-.007H117.4a.3.3,0,0,0-.078.007,2.407,2.407,0,0,0-2.234,2.484V33.342h3.608a2.676,2.676,0,0,0,2.579-2.764v-2.9a19.563,19.563,0,0,1,.4-4.359c.033-.154.071-.294.111-.44.026-.1.059-.21.091-.308.046-.133.091-.266.137-.392a1.241,1.241,0,0,1,.091-.217c.072-.176.15-.343.235-.5a1.86,1.86,0,0,1,.11-.2,1.333,1.333,0,0,1,.1-.161c.052-.077.1-.161.163-.231a2.92,2.92,0,0,1,.462-.49,1.478,1.478,0,0,1,.2-.154c.065-.049.137-.091.2-.133.046-.028.085-.049.124-.07a.5.5,0,0,1,.1-.049c.046-.021.084-.035.13-.056a2.179,2.179,0,0,1,.222-.077,1.606,1.606,0,0,1,.267-.063.078.078,0,0,1,.039-.007,1.942,1.942,0,0,1,.208-.028c.039-.007.084-.007.124-.014.084-.007.163-.007.254-.007a3.457,3.457,0,0,1,2.866,1.5l2.409-5.814A6.082,6.082,0,0,0,125.7,12.889Z" transform="translate(-27.558 -3.086)" fill="#245eb2"/>
      <path id="Path_21016" data-name="Path 21016" d="M149.189,24.387c-1.153,1.5-1.784,1.917-2.9,1.917-1.739,0-2.443-.959-2.54-3.533-.007-.218-.013-.441-.013-.672,0-.749-.033-2.554-.033-4.388h4.507l-.8-5.633-3.7-.035-.24-4.73-3.185.427a3,3,0,0,0-2.469,2.96l-.039,1.525h-2.8l.384,5.409,2.136.077c.026.434.046.875.052,1.308.02.609.027,1.218.027,1.827,0,.294,0,.595-.007.9v1.036c0,7.06,1.745,9.418,7.021,9.418,2.793,0,4.852-.825,6.076-2.477Z" transform="translate(-32.319 -1.751)" fill="#245eb2"/>
      <path id="Path_21017" data-name="Path 21017" d="M170.71,16.112q-.156-.178-.332-.357a10.773,10.773,0,0,0-1.466-1.253c-.15-.1-.3-.2-.449-.3-.2-.119-.384-.231-.58-.343s-.4-.21-.605-.3-.417-.175-.625-.259-.43-.147-.645-.21a8.952,8.952,0,0,0-1.056-.238,9.128,9.128,0,0,0-1.452-.119,9.315,9.315,0,0,0-2.429.322c-.313.084-.619.182-.925.294a9.862,9.862,0,0,0-1.31.6c-.123.07-.247.14-.364.21-.241.148-.469.3-.7.462-.11.084-.227.168-.338.252-.214.175-.43.357-.632.545s-.4.385-.586.6a9.792,9.792,0,0,0-2.606,6.584c0,.132.007.259.007.385.006.091.006.182.013.272a3.835,3.835,0,0,0,.033.385,2.081,2.081,0,0,0,.026.218c.007.07.02.14.033.217.729,4.968,5.041,9.11,9.841,9.11,4.937,0,9.444-4.632,9.737-9.866a1.3,1.3,0,0,0,.006-.154c.007-.126.007-.252.007-.378A10.032,10.032,0,0,0,170.71,16.112ZM163.683,26.7a3.352,3.352,0,0,1-3.27-2.736c-.013-.056-.027-.113-.033-.161s-.013-.07-.02-.1a.154.154,0,0,1-.006-.056,1.692,1.692,0,0,1-.027-.2c-.013-.084-.019-.168-.026-.252s-.007-.189-.007-.287a3.381,3.381,0,0,1,3.426-3.492A3.477,3.477,0,0,1,167,23.172c0,.1-.007.2-.013.294a1.172,1.172,0,0,1-.02.218V23.7A3.226,3.226,0,0,1,163.683,26.7Z" transform="translate(-36.783 -3.049)" fill="#245eb2"/>
      <path id="Path_21018" data-name="Path 21018" d="M199.316,21.44c-.007-.035-.007-.077-.013-.112a.493.493,0,0,0-.014-.091c-.019-.14-.046-.273-.071-.405a.132.132,0,0,0-.013-.049c-.026-.147-.065-.294-.1-.44a.025.025,0,0,0-.006-.014c-.046-.154-.085-.308-.137-.462s-.091-.28-.144-.42a.7.7,0,0,0-.026-.077l-.117-.294c-.026-.07-.059-.14-.091-.217a8.56,8.56,0,0,0-.391-.79,9.423,9.423,0,0,0-.547-.9q-.118-.168-.234-.336c-.1-.132-.2-.259-.3-.385s-.208-.245-.313-.364-.208-.231-.319-.343l-.026-.028c-.1-.1-.2-.2-.307-.3-.078-.07-.156-.14-.234-.217s-.15-.133-.234-.2c-.131-.1-.261-.21-.4-.315-.221-.168-.45-.322-.684-.476h-.006a8.49,8.49,0,0,0-.762-.44,4.011,4.011,0,0,0-.385-.189.019.019,0,0,0-.013-.007c-.1-.049-.208-.1-.313-.14-.046-.021-.091-.035-.13-.056-.1-.035-.2-.077-.293-.112a.646.646,0,0,0-.1-.035c-.111-.035-.222-.07-.332-.112a.737.737,0,0,1-.117-.035c-.1-.028-.215-.063-.319-.091l-.078-.021c-.123-.028-.254-.056-.377-.091-.014,0-.02,0-.027-.007-.137-.028-.273-.049-.41-.07a.046.046,0,0,1-.026-.007l-.326-.042c-.221-.028-.436-.043-.658-.049a1.392,1.392,0,0,1-.169-.007,1.3,1.3,0,0,0-.163-.007,9.406,9.406,0,0,0-2.436.322q-.469.125-.919.294a9.8,9.8,0,0,0-1.309.6c-.124.07-.247.14-.364.21-.241.147-.469.3-.7.462-.11.084-.227.168-.338.252-.215.175-.43.357-.632.546s-.4.385-.586.595a9.789,9.789,0,0,0-2.606,6.584c0,.119.007.238.007.357s.013.231.019.35c.372,5.3,4.879,9.879,9.933,9.879,5.1,0,9.743-4.953,9.743-10.4A7.511,7.511,0,0,0,199.316,21.44Zm-9.542,5.248a3.5,3.5,0,0,1-3.387-3.792,1.626,1.626,0,0,1,.007-.183,1.373,1.373,0,0,1,.013-.167,1.8,1.8,0,0,1,.026-.189c.007-.056.013-.119.026-.175a1.725,1.725,0,0,0,.033-.175,1.575,1.575,0,0,1,.046-.168,1.2,1.2,0,0,1,.052-.16.632.632,0,0,1,.059-.154c.019-.056.045-.1.065-.154.046-.1.1-.2.15-.3a2.638,2.638,0,0,1,.183-.28c.033-.042.065-.091.1-.132a3.144,3.144,0,0,1,.788-.707c.033-.021.065-.042.091-.056a2.985,2.985,0,0,1,.579-.273c.046-.014.091-.035.13-.049a3.539,3.539,0,0,1,1.069-.161c.1,0,.2.007.287.014.072.008.15.014.221.028.026.007.052.007.084.014.084.014.163.035.241.056s.176.056.261.091.169.07.254.112a3.228,3.228,0,0,1,.468.28,2.386,2.386,0,0,1,.215.175c.065.056.13.119.2.182.006,0,.006.007.006.007a2.575,2.575,0,0,1,.183.2,3.376,3.376,0,0,1,.332.476c.046.084.091.168.13.259a1.933,1.933,0,0,1,.091.21.46.46,0,0,0,.026.07c.033.091.065.175.091.273,0,.007.007.014.007.028a2.134,2.134,0,0,1,.071.287,4.588,4.588,0,0,1,.11,1.008A3.275,3.275,0,0,1,189.774,26.688Z" transform="translate(-43.03 -3.038)" fill="#245eb2"/>
      <path id="Path_21019" data-name="Path 21019" d="M223.87,18.871a1.319,1.319,0,0,0-.033-.147.077.077,0,0,1-.007-.035c-.032-.133-.065-.273-.1-.405-.071-.28-.163-.553-.254-.819-.032-.091-.065-.182-.1-.28-.046-.119-.084-.238-.137-.357s-.091-.231-.143-.343c-.033-.063-.059-.133-.091-.2-.046-.091-.091-.182-.137-.279q-.137-.274-.293-.525c-.046-.078-.1-.161-.15-.245a7.846,7.846,0,0,0-.476-.651.181.181,0,0,1-.026-.035c-.046-.056-.1-.119-.15-.175-.123-.133-.254-.266-.384-.385l-.2-.168c-.1-.077-.2-.154-.3-.23s-.208-.14-.313-.2c-.072-.042-.143-.084-.214-.119a3.406,3.406,0,0,0-.671-.287,2.356,2.356,0,0,0-.235-.07,2.875,2.875,0,0,0-.481-.1c-.072-.014-.144-.021-.222-.028a.241.241,0,0,1-.032-.007l-.241-.021a.713.713,0,0,1-.124-.007.791.791,0,0,0-.124-.007c-.123,0-.254.007-.377.014a5.28,5.28,0,0,0-.86.141c-.1.027-.2.049-.293.077-.13.035-.261.077-.391.125a8.707,8.707,0,0,0-3.882,2.946V12.931l-3,.056a.157.157,0,0,0-.052.007,3.118,3.118,0,0,0-2.892,3.212V33.047H212.5c0-2.623.033-5.255.033-5.814.033-3.079-.033-4.17.033-4.772a3.207,3.207,0,0,1,1.055-2.036,1.244,1.244,0,0,1,.1-.091c.072-.056.144-.119.221-.175a1.709,1.709,0,0,1,.228-.154c.046-.028.1-.056.144-.084a3.076,3.076,0,0,1,.475-.23,1.753,1.753,0,0,1,.267-.091c.091-.028.183-.049.28-.07.007,0,.013-.007.026-.007.1-.021.2-.035.3-.049h.013a2.263,2.263,0,0,1,.313-.014c.085,0,.163.007.241.014a.027.027,0,0,1,.033.007c.078.007.15.021.228.035a1.963,1.963,0,0,1,.189.056.223.223,0,0,1,.071.028,1.818,1.818,0,0,1,.2.091,1.744,1.744,0,0,1,.214.125A3.231,3.231,0,0,1,218.4,22.65l-.156,7.767a2.49,2.49,0,0,0,2.39,2.624h3.705c0-4.275.033-8.592.033-9.271A21.818,21.818,0,0,0,223.87,18.871Z" transform="translate(-49.446 -3.051)" fill="#245eb2"/>
      <path id="Path_21020" data-name="Path 21020" d="M105.667,28.915c-.925-3.232-1.954-6.43-3.016-9.614-.768-2.309-1.55-4.61-2.318-6.927-.15-.462-.306-.916-.456-1.378-.313-.945-.618-1.889-.925-2.841q-.205-.651-.41-1.3c-.02-.056-.033-.113-.052-.168a.4.4,0,0,1-.026-.077,6.462,6.462,0,0,0-2.1-2.96,5.846,5.846,0,0,0-3.478-1.238h-.117a5.669,5.669,0,0,0-4.956,3.1c-.046.077-.084.161-.124.245l-.019.042c-.02.035-.033.07-.052.1L83.334,15.46,78.026,27.32a.176.176,0,0,0,.084.237l4.9,1.98a2.941,2.941,0,0,0,3.771-1.6l.912-1.966a2.919,2.919,0,0,1,2.625-1.749h2.9a3.332,3.332,0,0,1,3.094,2.267l.651,1.784a3.135,3.135,0,0,0,3.673,2.078l4.918-1.21A.2.2,0,0,0,105.667,28.915ZM94.523,18.553l-4.279-.035a.211.211,0,0,1-.2-.287l.482-1.336,1.934-5.367a.062.062,0,0,1,.117.008l.084.259.945,2.981.925,2.911.2.609A.208.208,0,0,1,94.523,18.553Z" transform="translate(-18.679 -0.577)" fill="url(#linear-gradient-26)"/>
      <path id="Path_21021" data-name="Path 21021" d="M125.7,12.328a4.788,4.788,0,0,0-4.468,3.225l.033-2.924v-.007H117.4a.3.3,0,0,0-.078.007,2.407,2.407,0,0,0-2.234,2.484V32.781h3.608a2.676,2.676,0,0,0,2.579-2.764v-2.9a19.563,19.563,0,0,1,.4-4.359c.033-.154.071-.294.111-.44.026-.1.059-.21.091-.308.046-.133.091-.266.137-.392a1.273,1.273,0,0,1,.091-.218c.072-.174.15-.342.235-.5a1.953,1.953,0,0,1,.11-.2,1.386,1.386,0,0,1,.1-.16c.052-.077.1-.161.163-.231a2.92,2.92,0,0,1,.462-.49,1.477,1.477,0,0,1,.2-.154c.065-.049.137-.091.2-.133.046-.028.085-.049.124-.07a.467.467,0,0,1,.1-.049c.046-.021.084-.035.13-.056a2.01,2.01,0,0,1,.222-.077,1.686,1.686,0,0,1,.267-.063.078.078,0,0,1,.039-.007,1.767,1.767,0,0,1,.208-.028c.039-.007.084-.007.124-.014.084-.008.163-.008.254-.008a3.459,3.459,0,0,1,2.866,1.5l2.409-5.814A6.1,6.1,0,0,0,125.7,12.328Z" transform="translate(-27.558 -2.952)" fill="url(#linear-gradient-27)"/>
      <path id="Path_21022" data-name="Path 21022" d="M149.189,23.835c-1.153,1.5-1.784,1.917-2.9,1.917-1.739,0-2.443-.958-2.54-3.533-.007-.217-.013-.441-.013-.672,0-.749-.033-2.554-.033-4.388h4.507l-.8-5.633-3.7-.035-.24-4.73-3.185.427a3,3,0,0,0-2.469,2.96l-.039,1.526h-2.8l.384,5.408,2.136.077c.026.434.046.875.052,1.309.02.608.027,1.218.027,1.826,0,.294,0,.595-.007.9v1.035c0,7.06,1.745,9.418,7.021,9.418,2.793,0,4.852-.825,6.076-2.476Z" transform="translate(-32.319 -1.619)" fill="url(#linear-gradient-28)"/>
      <path id="Path_21023" data-name="Path 21023" d="M170.71,15.551c-.1-.119-.215-.238-.332-.357a10.773,10.773,0,0,0-1.466-1.253c-.15-.1-.3-.2-.449-.3-.2-.119-.384-.231-.58-.343s-.4-.21-.605-.3-.417-.175-.625-.259-.43-.147-.645-.21a8.952,8.952,0,0,0-1.056-.238,9.128,9.128,0,0,0-1.452-.119,9.315,9.315,0,0,0-2.429.322c-.313.084-.619.182-.925.294a9.771,9.771,0,0,0-1.31.6c-.123.07-.247.14-.364.21-.241.147-.469.3-.7.462-.11.084-.227.167-.338.252-.214.175-.43.357-.632.546s-.4.384-.586.594a9.8,9.8,0,0,0-2.606,6.585c0,.133.007.259.007.385.006.091.006.182.013.272a3.835,3.835,0,0,0,.033.385,2.082,2.082,0,0,0,.026.218c.007.07.02.14.033.217.729,4.968,5.041,9.11,9.841,9.11,4.937,0,9.444-4.632,9.737-9.866a1.3,1.3,0,0,0,.006-.154c.007-.126.007-.252.007-.378A10.058,10.058,0,0,0,170.71,15.551Zm-7.027,10.594a3.352,3.352,0,0,1-3.27-2.736c-.013-.056-.027-.112-.033-.161s-.013-.07-.02-.1a.154.154,0,0,1-.006-.056,1.693,1.693,0,0,1-.027-.2c-.013-.084-.019-.167-.026-.252s-.007-.189-.007-.287a3.381,3.381,0,0,1,3.426-3.492A3.477,3.477,0,0,1,167,22.618c0,.1-.007.2-.013.294a1.17,1.17,0,0,1-.02.217v.021A3.226,3.226,0,0,1,163.683,26.145Z" transform="translate(-36.783 -2.915)" fill="url(#linear-gradient-29)"/>
      <path id="Path_21024" data-name="Path 21024" d="M199.316,20.888c-.007-.035-.007-.077-.013-.112a.493.493,0,0,0-.014-.091c-.019-.14-.046-.272-.071-.405a.132.132,0,0,0-.013-.049c-.026-.147-.065-.294-.1-.44a.029.029,0,0,0-.006-.014c-.046-.154-.085-.307-.137-.462s-.091-.28-.144-.42a.759.759,0,0,0-.026-.077l-.117-.294c-.026-.07-.059-.14-.091-.218a8.656,8.656,0,0,0-.391-.79,9.422,9.422,0,0,0-.547-.9l-.234-.335c-.1-.133-.2-.259-.3-.385s-.208-.245-.313-.364-.208-.23-.319-.343l-.026-.027c-.1-.1-.2-.2-.307-.3-.078-.07-.156-.14-.234-.217s-.15-.133-.234-.2c-.131-.1-.261-.21-.4-.315-.221-.168-.45-.322-.684-.476h-.006a8.677,8.677,0,0,0-.762-.44,4.01,4.01,0,0,0-.385-.189.019.019,0,0,0-.013-.007c-.1-.049-.208-.1-.313-.14-.046-.021-.091-.035-.13-.056-.1-.035-.2-.078-.293-.113a.73.73,0,0,0-.1-.035c-.111-.035-.222-.07-.332-.112a.665.665,0,0,1-.117-.035c-.1-.028-.215-.063-.319-.091l-.078-.021c-.123-.028-.254-.056-.377-.091-.014,0-.02,0-.027-.007-.137-.028-.273-.049-.41-.07a.046.046,0,0,1-.026-.007l-.326-.042c-.221-.028-.436-.042-.658-.049a1.393,1.393,0,0,1-.169-.007,1.3,1.3,0,0,0-.163-.007,9.406,9.406,0,0,0-2.436.322c-.313.084-.619.182-.919.294a9.7,9.7,0,0,0-1.309.6c-.124.07-.247.14-.364.21-.241.147-.469.3-.7.462-.11.084-.227.168-.338.252-.215.175-.43.357-.632.546s-.4.385-.586.595A9.79,9.79,0,0,0,179.7,22c0,.119.007.238.007.357s.013.231.019.35c.372,5.3,4.879,9.88,9.933,9.88,5.1,0,9.743-4.954,9.743-10.4A7.516,7.516,0,0,0,199.316,20.888Zm-9.542,5.248a3.5,3.5,0,0,1-3.387-3.792,1.605,1.605,0,0,1,.007-.182,1.373,1.373,0,0,1,.013-.168,1.8,1.8,0,0,1,.026-.189c.007-.056.013-.119.026-.175a1.725,1.725,0,0,0,.033-.175,1.515,1.515,0,0,1,.046-.167,1.172,1.172,0,0,1,.052-.161.615.615,0,0,1,.059-.154c.019-.056.045-.1.065-.154.046-.1.1-.2.15-.3a2.492,2.492,0,0,1,.183-.28c.033-.043.065-.091.1-.133a3.126,3.126,0,0,1,.788-.707c.033-.021.065-.043.091-.056a2.985,2.985,0,0,1,.579-.273c.046-.014.091-.035.13-.049a3.539,3.539,0,0,1,1.069-.161c.1,0,.2.007.287.014.072.007.15.014.221.027.026.008.052.008.084.014.084.014.163.035.241.056s.176.056.261.091.169.07.254.112a3.228,3.228,0,0,1,.468.28,2.527,2.527,0,0,1,.215.175c.065.056.13.119.2.182.006,0,.006.008.006.008a2.436,2.436,0,0,1,.183.2,3.421,3.421,0,0,1,.332.476c.046.084.091.168.13.259a1.933,1.933,0,0,1,.091.21.432.432,0,0,0,.026.07c.033.091.065.175.091.273,0,.007.007.014.007.028a2.163,2.163,0,0,1,.071.287,4.588,4.588,0,0,1,.11,1.008A3.275,3.275,0,0,1,189.774,26.136Z" transform="translate(-43.03 -2.906)" fill="url(#linear-gradient-30)"/>
      <path id="Path_21025" data-name="Path 21025" d="M223.87,18.31a1.282,1.282,0,0,0-.033-.147.079.079,0,0,1-.007-.035c-.032-.133-.065-.273-.1-.406-.071-.28-.163-.553-.254-.818-.032-.091-.065-.182-.1-.28-.046-.119-.084-.238-.137-.357s-.091-.231-.143-.343c-.033-.063-.059-.133-.091-.2-.046-.091-.091-.182-.137-.28q-.137-.273-.293-.525c-.046-.077-.1-.16-.15-.245a7.962,7.962,0,0,0-.476-.65.181.181,0,0,1-.026-.035c-.046-.056-.1-.119-.15-.175-.123-.133-.254-.266-.384-.385l-.2-.168c-.1-.077-.2-.154-.3-.231s-.208-.14-.313-.2c-.072-.042-.143-.084-.214-.119a3.406,3.406,0,0,0-.671-.287,2.355,2.355,0,0,0-.235-.07,2.8,2.8,0,0,0-.481-.1,2.211,2.211,0,0,0-.222-.028.241.241,0,0,1-.032-.007l-.241-.021a.713.713,0,0,1-.124-.007.791.791,0,0,0-.124-.007c-.123,0-.254.007-.377.014a5.278,5.278,0,0,0-.86.14c-.1.028-.2.049-.293.077-.13.036-.261.078-.391.126a8.711,8.711,0,0,0-3.882,2.946V12.37l-3,.056a.157.157,0,0,0-.052.007,3.118,3.118,0,0,0-2.892,3.212V32.486H212.5c0-2.624.033-5.255.033-5.814.033-3.079-.033-4.17.033-4.772a3.211,3.211,0,0,1,1.055-2.037,1.23,1.23,0,0,1,.1-.091c.072-.056.144-.119.221-.175a1.715,1.715,0,0,1,.228-.154c.046-.027.1-.056.144-.084a3.012,3.012,0,0,1,.475-.231,1.838,1.838,0,0,1,.267-.091c.091-.028.183-.049.28-.07.007,0,.013-.007.026-.007.1-.021.2-.035.3-.049h.013A2.388,2.388,0,0,1,216,18.9c.085,0,.163.007.241.014a.027.027,0,0,1,.033.008c.078.007.15.021.228.035a1.767,1.767,0,0,1,.189.056.207.207,0,0,1,.071.028,1.966,1.966,0,0,1,.2.091,1.752,1.752,0,0,1,.214.126,3.231,3.231,0,0,1,1.224,2.834l-.156,7.767a2.49,2.49,0,0,0,2.39,2.624h3.705c0-4.275.033-8.592.033-9.271A21.861,21.861,0,0,0,223.87,18.31Z" transform="translate(-49.446 -2.917)" fill="url(#linear-gradient-31)"/>
      <g id="Group_7353" data-name="Group 7353" transform="translate(64.655 1.833)" opacity="0.4">
        <path id="Path_21026" data-name="Path 21026" d="M94.265,11.534c-.039-.07-.117-.007-.117-.007l-1.934,5.367-7.2-1.434L89.342,5.8l.02-.042a1.425,1.425,0,0,1,.124-.245,5.431,5.431,0,0,1,4.878-3.1h.2l.261.007a5.687,5.687,0,0,1,5.308,4.135.146.146,0,0,1,.013.056.352.352,0,0,0,.026.077c.15.49.307.98.462,1.469.3.951.606,1.9.925,2.841.15.462.3.916.456,1.378.768,2.316,1.55,4.618,2.318,6.927L96.22,17.685,95.3,14.774Z" transform="translate(-85.011 -2.411)" opacity="0.4" fill="url(#linear-gradient-32)" style="mix-blend-mode: normal;isolation: isolate"/>
        <path id="Path_21027" data-name="Path 21027" d="M125.7,12.328a4.787,4.787,0,0,0-4.468,3.225l.033-2.924H117.32a2.407,2.407,0,0,0-2.234,2.484v7q3.117.346,6.591.643c.033-.154.071-.294.111-.441.026-.1.059-.21.091-.307.046-.133.091-.266.137-.392a1.265,1.265,0,0,1,.091-.217c.072-.175.15-.343.235-.5a1.953,1.953,0,0,1,.11-.2,1.386,1.386,0,0,1,.1-.16c.052-.077.1-.161.163-.231a2.92,2.92,0,0,1,.462-.49,1.419,1.419,0,0,1,.2-.154c.065-.049.137-.091.2-.133.046-.028.085-.049.124-.07a.506.506,0,0,1,.1-.049c.046-.021.084-.035.13-.056a2.01,2.01,0,0,1,.222-.077,1.607,1.607,0,0,1,.267-.063.078.078,0,0,1,.039-.007,1.767,1.767,0,0,1,.208-.028c.039-.007.084-.007.124-.014.084-.008.163-.008.254-.008a3.457,3.457,0,0,1,2.866,1.5l2.409-5.814A6.1,6.1,0,0,0,125.7,12.328Z" transform="translate(-92.213 -4.785)" opacity="0.4" fill="url(#linear-gradient-33)" style="mix-blend-mode: normal;isolation: isolate"/>
        <path id="Path_21028" data-name="Path 21028" d="M143.7,17.15h4.507l-.8-5.633-3.7-.035-.241-4.73-3.184.427a3,3,0,0,0-2.469,2.96l-.039,1.525h-2.807l.384,5.409,2.136.077c.026.434.046.875.052,1.309.02.608.027,1.217.027,1.826,0,.294,0,.595-.007.9s-.007.588-.007.889h.007c2,.07,4.058.119,6.194.147-.007-.217-.013-.441-.013-.672C143.737,20.789,143.7,18.991,143.7,17.15Z" transform="translate(-96.974 -3.45)" opacity="0.4" fill="url(#linear-gradient-34)" style="mix-blend-mode: normal;isolation: isolate"/>
        <path id="Path_21029" data-name="Path 21029" d="M170.711,15.551c-.1-.119-.215-.238-.332-.357a10.77,10.77,0,0,0-1.466-1.253c-.15-.1-.3-.2-.449-.3-.2-.119-.384-.231-.58-.343s-.4-.21-.605-.3-.417-.175-.625-.259-.43-.147-.645-.21a8.952,8.952,0,0,0-1.056-.238,9.128,9.128,0,0,0-1.452-.119,9.612,9.612,0,0,0-2.429.315c-.313.084-.619.182-.925.294a9.86,9.86,0,0,0-1.31.6c-.123.07-.247.14-.364.21-.241.148-.469.3-.7.462-.11.084-.227.168-.338.252-.215.175-.43.357-.632.545s-.4.385-.586.595a9.792,9.792,0,0,0-2.606,6.585c0,.132.007.259.007.384.006.091.006.183.013.273a3.853,3.853,0,0,0,.033.385,2.091,2.091,0,0,0,.026.217c.007.07.013.14.026.218h.007q3.243-.022,6.682-.119c-.013-.056-.026-.112-.033-.16s-.013-.07-.019-.1a.142.142,0,0,1-.007-.056,1.689,1.689,0,0,1-.026-.2c-.013-.078-.02-.168-.027-.252s-.006-.189-.006-.287a3.381,3.381,0,0,1,3.426-3.492A3.478,3.478,0,0,1,167,22.6c0,.1-.006.2-.013.294a1.173,1.173,0,0,1-.019.217v.021q3.1-.157,6.343-.378a1.156,1.156,0,0,0,.007-.154c.007-.126.007-.252.007-.378A10.1,10.1,0,0,0,170.711,15.551Z" transform="translate(-101.438 -4.748)" opacity="0.4" fill="url(#linear-gradient-35)" style="mix-blend-mode: normal;isolation: isolate"/>
        <path id="Path_21030" data-name="Path 21030" d="M199.294,20.778a.558.558,0,0,0-.013-.091c-.02-.14-.046-.273-.072-.405a.133.133,0,0,0-.013-.049c-.026-.147-.065-.294-.1-.44a.025.025,0,0,0-.006-.014c-.046-.154-.085-.308-.137-.462s-.091-.28-.144-.42a.706.706,0,0,0-.026-.077l-.117-.294c-.026-.07-.059-.14-.091-.217a8.559,8.559,0,0,0-.391-.79,9.413,9.413,0,0,0-.547-.9l-.234-.336c-.1-.132-.2-.259-.3-.385s-.208-.245-.313-.364-.208-.231-.319-.343l-.026-.028c-.1-.1-.2-.2-.307-.3-.078-.07-.156-.14-.234-.217s-.15-.133-.234-.2c-.13-.1-.261-.21-.4-.315-.221-.168-.449-.322-.684-.476h-.006q-.372-.23-.762-.44a4.09,4.09,0,0,0-.384-.189.021.021,0,0,0-.014-.007c-.1-.049-.208-.1-.313-.14-.046-.021-.091-.035-.13-.056-.1-.035-.2-.077-.293-.112a.622.622,0,0,0-.1-.035c-.111-.035-.221-.07-.332-.112a.759.759,0,0,1-.117-.035c-.1-.028-.215-.063-.319-.091l-.078-.021c-.123-.028-.254-.056-.377-.091-.013,0-.02,0-.026-.007-.137-.028-.274-.049-.411-.07a.046.046,0,0,1-.026-.007l-.326-.042c-.222-.028-.437-.042-.658-.049a1.406,1.406,0,0,1-.17-.007h-.163a9.706,9.706,0,0,0-2.436.315q-.469.125-.918.294a9.767,9.767,0,0,0-1.31.6c-.123.07-.247.14-.364.21-.241.147-.469.3-.7.462-.111.084-.228.168-.339.252-.214.175-.43.357-.631.546s-.4.385-.586.595A9.792,9.792,0,0,0,179.689,22c0,.119.007.238.007.357s.013.231.02.35c2.162-.147,4.383-.322,6.649-.518a.292.292,0,0,1,.007-.077,1.388,1.388,0,0,1,.013-.168,1.809,1.809,0,0,1,.026-.189,1.7,1.7,0,0,1,.026-.175,1.591,1.591,0,0,0,.033-.175,1.537,1.537,0,0,1,.046-.168,1.117,1.117,0,0,1,.052-.161.6.6,0,0,1,.059-.154c.019-.056.046-.1.065-.154a3.25,3.25,0,0,1,.15-.3,2.556,2.556,0,0,1,.183-.28,1.059,1.059,0,0,1,.1-.133,3.127,3.127,0,0,1,.788-.707c.033-.021.065-.042.091-.056a2.983,2.983,0,0,1,.58-.272c.046-.014.091-.035.131-.049a3.53,3.53,0,0,1,1.068-.16c.1,0,.2.007.287.014a2.2,2.2,0,0,1,.221.028c.026.007.052.007.084.014.085.014.163.035.241.056s.176.056.261.091.169.07.254.113a3.232,3.232,0,0,1,.469.28c.071.056.144.112.215.175s.13.119.2.182c.006,0,.006.007.006.007a2.576,2.576,0,0,1,.183.2,3.412,3.412,0,0,1,.332.475c.046.084.091.168.13.259a1.939,1.939,0,0,1,.091.21.6.6,0,0,0,.026.07c.033.091.065.175.091.273,0,.007.007.014.007.027.026.091.052.189.071.287,2.078-.218,4.188-.448,6.337-.714h.007C199.313,20.855,199.307,20.813,199.294,20.778Z" transform="translate(-107.682 -4.741)" opacity="0.4" fill="url(#linear-gradient-36)" style="mix-blend-mode: normal;isolation: isolate"/>
        <path id="Path_21031" data-name="Path 21031" d="M223.837,18.166a.079.079,0,0,1-.007-.035c-.032-.133-.065-.273-.1-.406-.071-.28-.163-.553-.254-.818-.032-.091-.065-.182-.1-.28-.046-.119-.084-.238-.137-.357s-.091-.231-.143-.343c-.033-.063-.059-.133-.091-.2-.046-.091-.091-.182-.137-.28q-.137-.273-.293-.525c-.046-.077-.1-.161-.15-.245a7.847,7.847,0,0,0-.476-.651.173.173,0,0,1-.026-.034c-.046-.056-.1-.119-.15-.175-.123-.133-.254-.266-.384-.385l-.2-.168c-.1-.078-.2-.154-.3-.231s-.208-.14-.313-.2c-.072-.042-.143-.084-.214-.119a4.482,4.482,0,0,0-.671-.287,2.17,2.17,0,0,0-.235-.07c-.156-.042-.319-.077-.481-.1a2.01,2.01,0,0,0-.222-.028.241.241,0,0,1-.032-.007l-.241-.021a.713.713,0,0,1-.124-.007h-.124c-.123,0-.254.007-.377.014a6.139,6.139,0,0,0-.86.14c-.1.028-.2.049-.293.078-.13.035-.261.077-.391.125a8.711,8.711,0,0,0-3.882,2.946V12.379l-3.048.056a3.118,3.118,0,0,0-2.892,3.212V20.81q3.5-.43,7.132-.937a1.244,1.244,0,0,1,.1-.091c.072-.063.144-.119.221-.175a1.639,1.639,0,0,1,.228-.154c.046-.028.1-.056.144-.084a3.008,3.008,0,0,1,.475-.23,1.6,1.6,0,0,1,.267-.091c.091-.028.183-.049.28-.07.007,0,.013-.007.026-.007.1-.021.2-.035.3-.049h.013a2.388,2.388,0,0,1,.313-.014c.085,0,.163.007.241.014a.028.028,0,0,1,.033.007c.078.008.15.021.228.036a1.964,1.964,0,0,1,.189.056.223.223,0,0,1,.071.028c.065.028.131.056.2.091a1.743,1.743,0,0,1,.214.125.684.684,0,0,1,.111.077c2.162-.315,4.35-.657,6.578-1.021h.007A1.124,1.124,0,0,0,223.837,18.166Z" transform="translate(-114.1 -4.752)" opacity="0.4" fill="url(#linear-gradient-37)" style="mix-blend-mode: normal;isolation: isolate"/>
      </g>
      <path id="Path_21032" data-name="Path 21032" d="M108.753,51.376H110.3v3.765a5.3,5.3,0,0,1-3.439,1.2,4.857,4.857,0,0,1,.026-9.712,4.373,4.373,0,0,1,3.524,1.54l-1.029,1.077a3.27,3.27,0,1,0-2.436,5.556,3.342,3.342,0,0,0,1.8-.483V51.376Z" transform="translate(-24.455 -11.165)"/>
      <path id="Path_21033" data-name="Path 21033" d="M133.7,54.066h-4.39l-.866,2.183h-1.68l3.953-9.438h1.609l3.966,9.438h-1.707Zm-.541-1.378-1.654-4.128-1.641,4.128Z" transform="translate(-30.355 -11.209)"/>
      <path id="Path_21034" data-name="Path 21034" d="M161.537,56.248l-.013-6.255-2.886,5.178h-.729l-2.885-5.094v6.171h-1.556V46.81h1.342l3.491,6.255,3.425-6.255h1.342l.014,9.438Z" transform="translate(-36.749 -11.209)"/>
      <path id="Path_21035" data-name="Path 21035" d="M188.516,54.779v1.469h-6.591V46.81h6.415v1.469h-4.781v2.456h4.24v1.441h-4.24v2.6Z" transform="translate(-43.563 -11.209)"/>
      <path id="Path_21036" data-name="Path 21036" d="M204.721,55.2l.567-1.364a4.635,4.635,0,0,0,2.9,1.035c1.368,0,1.948-.525,1.948-1.224,0-2.036-5.223-.7-5.223-4.205,0-1.526,1.127-2.82,3.537-2.82a5.274,5.274,0,0,1,2.924.833l-.514,1.364a4.642,4.642,0,0,0-2.423-.742c-1.355,0-1.908.567-1.908,1.281,0,2.008,5.21.7,5.21,4.163,0,1.511-1.14,2.806-3.55,2.806A5.324,5.324,0,0,1,204.721,55.2Z" transform="translate(-49.021 -11.165)"/>
    </g>
  </g>
</svg>
