<svg xmlns="http://www.w3.org/2000/svg" xmlns:xlink="http://www.w3.org/1999/xlink" width="187.201" height="169.026" viewBox="0 0 187.201 169.026">
  <defs>
    <clipPath id="clip-path">
      <rect id="Rectangle_2457" data-name="Rectangle 2457" width="187.201" height="169.026" rx="5" transform="translate(0)" fill="#fff"/>
    </clipPath>
  </defs>
  <g id="Mask_Group_34" data-name="Mask Group 34" clip-path="url(#clip-path)">
    <path id="XMLID_320_" d="M28.278,40.795A18.122,18.122,0,0,0,43.866,13.5l1.391-1.391.869.869L50.3,8.808,41.259,0,37.144,4.114l.927.869L36.507,6.548a18.128,18.128,0,1,0-8.229,34.247Zm0-26.134a8,8,0,1,1-8,8A8.013,8.013,0,0,1,28.278,14.661ZM49.2,35.638l7.3,7.3a34.988,34.988,0,0,1-16.283,12.4l-2.2.7a33.8,33.8,0,0,1-9.735,1.391A34.816,34.816,0,0,1,0,42.881l7.3-7.3A24.608,24.608,0,0,0,28.278,47.227,24.274,24.274,0,0,0,49.2,35.638Zm19.354-2.724a.436.436,0,0,0-.406-.29h-.058a.436.436,0,0,0-.406.29l-1.8,4.23c0,.058-.058.116-.058.174a.213.213,0,0,0,.058.174.341.341,0,0,0,.29.116.319.319,0,0,0,.29-.174l.464-1.1h2.376l.464,1.1a.319.319,0,0,0,.29.174.443.443,0,0,0,.29-.116.29.29,0,0,0,0-.348ZM67.1,35.754l.927-2.318.927,2.318Zm7.649-2.318a2.41,2.41,0,0,0-1.854-.811H71.507a.439.439,0,0,0-.232.116.3.3,0,0,0-.116.232V37.26a.439.439,0,0,0,.116.232.3.3,0,0,0,.232.116H72.9a2.325,2.325,0,0,0,1.854-.811,2.045,2.045,0,0,0,.464-.753,2.26,2.26,0,0,0,0-1.738A2.09,2.09,0,0,0,74.752,33.436Zm-.522,3.013a1.88,1.88,0,0,1-1.391.522h-.985V33.262h.985a1.88,1.88,0,0,1,1.391.522,1.836,1.836,0,0,1,.522,1.333A1.746,1.746,0,0,1,74.231,36.449Zm6.142-3.709a.213.213,0,0,1,.058.174v.174l-1.738,4.23c-.116.232-.232.348-.406.348h-.174a.423.423,0,0,1-.406-.348l-1.738-4.23v-.174a.213.213,0,0,1,.058-.174.3.3,0,0,1,.232-.116.318.318,0,0,1,.348.232l1.623,4.114,1.68-4.114a.3.3,0,0,1,.29-.232C80.257,32.624,80.315,32.682,80.373,32.74Zm1.507.522v1.565h2.26a.348.348,0,0,1,.232.058.3.3,0,0,1,.116.232.348.348,0,0,1-.058.232.3.3,0,0,1-.232.116h-2.26v1.565H84.43a.439.439,0,0,1,.232.116.3.3,0,0,1,.116.232.439.439,0,0,1-.116.232c-.058.058-.116.058-.232.058H81.59a.439.439,0,0,1-.232-.116.3.3,0,0,1-.116-.232V33.03a.439.439,0,0,1,.116-.232.3.3,0,0,1,.232-.116H84.43a.439.439,0,0,1,.232.116.349.349,0,0,1-.232.579H81.88Zm7.475,1.565a1.165,1.165,0,0,0,.232-.753,1.238,1.238,0,0,0-.464-.985,2.16,2.16,0,0,0-1.449-.406H86.052a.439.439,0,0,0-.232.116.3.3,0,0,0-.116.232v4.288a.439.439,0,0,0,.116.232.349.349,0,0,0,.579-.232V35.7h1.449a1.041,1.041,0,0,1,.637.174,1.18,1.18,0,0,1,.348.406,2.686,2.686,0,0,1,.116.811v.232a.3.3,0,0,0,.116.232c.058.058.116.058.232.058a.41.41,0,0,0,.348-.348v-.29a1.935,1.935,0,0,0-.174-.869,1.212,1.212,0,0,0-.753-.753A1.348,1.348,0,0,0,89.355,34.826Zm-.811,0a1.58,1.58,0,0,1-.927.232H86.342v-1.8h1.217a1.634,1.634,0,0,1,1.043.232.748.748,0,0,1,.29.637A.622.622,0,0,1,88.544,34.826Zm5.679-2.086c.058.058.058.116.058.232s0,.174-.058.232a.3.3,0,0,1-.232.116H92.542v4a.439.439,0,0,1-.116.232.3.3,0,0,1-.232.116.439.439,0,0,1-.232-.116.3.3,0,0,1-.116-.232v-4H90.4a.348.348,0,0,1-.232-.058.3.3,0,0,1-.116-.232.348.348,0,0,1,.058-.232.3.3,0,0,1,.232-.116h3.477C94.107,32.682,94.165,32.682,94.223,32.74Zm1.391,0a.3.3,0,0,1,.116.232v4.346a.439.439,0,0,1-.116.232.3.3,0,0,1-.232.116.439.439,0,0,1-.232-.116.3.3,0,0,1-.116-.232V32.972a.439.439,0,0,1,.116-.232.29.29,0,0,1,.464,0Zm4.81,3.535a1.238,1.238,0,0,1-.464.985,2.276,2.276,0,0,1-1.333.406,4.157,4.157,0,0,1-1.68-.348.125.125,0,0,1-.116-.116.29.29,0,0,1,0-.348c.058-.058.116-.116.174-.116a.348.348,0,0,1,.232.058,2.694,2.694,0,0,0,.522.174,3.42,3.42,0,0,0,.811.116c.811,0,1.217-.29,1.217-.811,0-.232-.174-.406-.464-.522a3.994,3.994,0,0,0-.464-.174l-.522-.174-.522-.174A3.441,3.441,0,0,1,97.352,35a1.126,1.126,0,0,1-.464-.927,1.238,1.238,0,0,1,.464-.985,2.032,2.032,0,0,1,1.333-.406,3.506,3.506,0,0,1,1.391.232.408.408,0,0,1,.232.29.213.213,0,0,1-.058.174c-.058.058-.116.116-.174.116a.438.438,0,0,1-.232-.058,2.807,2.807,0,0,0-1.043-.174,1.4,1.4,0,0,0-.869.232.637.637,0,0,0-.348.579c0,.29.174.464.464.637a3.991,3.991,0,0,0,.464.174,1.692,1.692,0,0,0,.522.116l.522.174a3.44,3.44,0,0,1,.464.232A.971.971,0,0,1,100.423,36.275Zm1.507-3.535a.3.3,0,0,1,.116.232v4.346a.439.439,0,0,1-.116.232.3.3,0,0,1-.232.116.439.439,0,0,1-.232-.116.3.3,0,0,1-.116-.232V32.972a.439.439,0,0,1,.116-.232.29.29,0,0,1,.464,0Zm5.621,0a.3.3,0,0,1,.116.232v4.172a.824.824,0,0,1-.116.348c-.116.116-.174.116-.348.116h-.058a.35.35,0,0,1-.348-.174l-2.724-3.94v3.825a.439.439,0,0,1-.116.232.3.3,0,0,1-.232.116.439.439,0,0,1-.232-.116.3.3,0,0,1-.116-.232V33.146a.824.824,0,0,1,.116-.348c.116-.116.174-.116.348-.116h.058a.437.437,0,0,1,.406.232l2.724,3.882V33.03a.439.439,0,0,1,.116-.232.3.3,0,0,1,.232-.116C107.435,32.624,107.493,32.682,107.551,32.74ZM112.94,35a.439.439,0,0,1,.116.232V36.8a.522.522,0,0,1-.058.29l-.174.174a3.214,3.214,0,0,1-1.623.406,2.4,2.4,0,0,1-1.8-.7,2.493,2.493,0,0,1-.7-1.8,2.632,2.632,0,0,1,.7-1.854,2.359,2.359,0,0,1,1.738-.7,2.309,2.309,0,0,1,.985.174c.29.116.522.232.753.348.116.058.116.116.116.232s0,.174-.058.232a.29.29,0,0,1-.348,0A2.563,2.563,0,0,0,111.2,33.2a1.836,1.836,0,0,0-1.333.522,1.88,1.88,0,0,0-.522,1.391,1.974,1.974,0,0,0,.522,1.391,1.88,1.88,0,0,0,1.391.522,2.694,2.694,0,0,0,1.217-.29V35.464h-1.159c-.058,0-.174,0-.174-.058-.058-.058-.058-.116-.058-.232s0-.174.058-.232a.213.213,0,0,1,.174-.058h1.391A.3.3,0,0,1,112.94,35Zm7.475-2.26a.3.3,0,0,1,.116.232v4.172a.824.824,0,0,1-.116.348c-.116.116-.174.116-.348.116h-.116a.35.35,0,0,1-.348-.174l-2.724-3.94v3.825a.439.439,0,0,1-.116.232.3.3,0,0,1-.232.116.439.439,0,0,1-.232-.116.3.3,0,0,1-.116-.232V33.146a.824.824,0,0,1,.116-.348c.116-.116.174-.116.348-.116h.058a.437.437,0,0,1,.406.232l2.724,3.882V33.03a.439.439,0,0,1,.116-.232.3.3,0,0,1,.232-.116C120.241,32.624,120.357,32.682,120.415,32.74Zm2.086.522v1.565h2.26a.348.348,0,0,1,.232.058.3.3,0,0,1,.116.232.348.348,0,0,1-.058.232.3.3,0,0,1-.232.116h-2.26v1.565h2.492a.439.439,0,0,1,.232.116.3.3,0,0,1,.116.232.439.439,0,0,1-.116.232c-.058.058-.116.058-.232.058h-2.839a.439.439,0,0,1-.232-.116.3.3,0,0,1-.116-.232V33.03a.439.439,0,0,1,.116-.232.3.3,0,0,1,.232-.116h2.839a.439.439,0,0,1,.232.116.349.349,0,0,1-.232.579H122.5Zm7.243-.522c.058.058.058.116.058.232s0,.174-.058.232a.3.3,0,0,1-.232.116h-1.449v4a.439.439,0,0,1-.116.232.3.3,0,0,1-.232.116.439.439,0,0,1-.232-.116.3.3,0,0,1-.116-.232v-4H125.92a.348.348,0,0,1-.232-.058.3.3,0,0,1-.116-.232.348.348,0,0,1,.058-.232.3.3,0,0,1,.232-.116h3.477C129.629,32.682,129.687,32.682,129.745,32.74Zm7.012,0a.213.213,0,0,1,.058.174v.174l-1.391,4.23a.371.371,0,0,1-.406.29c-.116,0-.174,0-.232-.058a.8.8,0,0,1-.174-.232l-1.159-3.593-1.159,3.593c0,.116-.058.174-.174.232s-.174.116-.232.116a.436.436,0,0,1-.406-.29l-1.391-4.23v-.174a.213.213,0,0,1,.058-.174c.058-.058.116-.058.232-.058a.318.318,0,0,1,.348.232l1.159,3.882,1.159-3.882c0-.058.058-.116.116-.174a.493.493,0,0,1,.464,0c.058.058.116.116.116.174l1.217,3.882,1.159-3.882a.318.318,0,0,1,.348-.232C136.64,32.624,136.7,32.682,136.756,32.74Zm3.013-.116a2.4,2.4,0,0,0-1.8.7,2.493,2.493,0,0,0-.7,1.8,2.541,2.541,0,0,0,4.288,1.8,2.762,2.762,0,0,0,.7-1.8,2.383,2.383,0,0,0-2.492-2.492Zm1.391,3.882a1.746,1.746,0,0,1-1.333.522,1.663,1.663,0,0,1-1.333-.522,2.318,2.318,0,0,1,0-2.781,1.836,1.836,0,0,1,1.333-.522,1.663,1.663,0,0,1,1.333.522,1.847,1.847,0,0,1,.464,1.391A2.114,2.114,0,0,1,141.16,36.507Zm5.795-1.68a1.165,1.165,0,0,0,.232-.753,1.238,1.238,0,0,0-.464-.985,2.16,2.16,0,0,0-1.449-.406h-1.623a.439.439,0,0,0-.232.116.3.3,0,0,0-.116.232v4.288a.439.439,0,0,0,.116.232.349.349,0,0,0,.579-.232V35.7h1.449a1.041,1.041,0,0,1,.637.174,1.18,1.18,0,0,1,.348.406,2.686,2.686,0,0,1,.116.811v.232a.3.3,0,0,0,.116.232c.058.058.116.058.232.058a.41.41,0,0,0,.348-.348v-.29a1.935,1.935,0,0,0-.174-.869,1.212,1.212,0,0,0-.753-.753A1.348,1.348,0,0,0,146.955,34.826Zm-.811,0a1.58,1.58,0,0,1-.927.232h-1.275v-1.8h1.217a1.634,1.634,0,0,1,1.043.232.748.748,0,0,1,.29.637A.622.622,0,0,1,146.144,34.826Zm5.911,2.26c.058.058.058.116.058.232a.348.348,0,0,1-.058.232c-.058.058-.116.058-.232.058a.3.3,0,0,1-.232-.116l-1.8-2.318-.811.811v1.333a.439.439,0,0,1-.116.232.3.3,0,0,1-.232.116.439.439,0,0,1-.232-.116.3.3,0,0,1-.116-.232V32.972a.439.439,0,0,1,.116-.232.3.3,0,0,1,.232-.116.439.439,0,0,1,.232.116.3.3,0,0,1,.116.232v2.2l2.376-2.434a.3.3,0,0,1,.232-.116c.116,0,.174,0,.232.058s.058.116.058.232,0,.174-.058.174L150.2,34.711Zm-76.2-15.53a.744.744,0,0,1,.232.579V25.9a1.168,1.168,0,0,1-.174.637,1.562,1.562,0,0,1-.464.406,8.27,8.27,0,0,1-3.825.927,5.719,5.719,0,0,1-4.23-1.68A6.051,6.051,0,0,1,65.771,21.9a5.989,5.989,0,0,1,1.68-4.346,5.414,5.414,0,0,1,4.114-1.623,7.091,7.091,0,0,1,2.376.348,8.124,8.124,0,0,1,1.738.869.557.557,0,0,1,.348.522.7.7,0,0,1-.637.753.859.859,0,0,1-.406-.058,6.152,6.152,0,0,0-3.245-.927A4.684,4.684,0,0,0,68.552,18.6a4.412,4.412,0,0,0-1.275,3.361,4.729,4.729,0,0,0,1.159,3.245A4.328,4.328,0,0,0,71.8,26.482a5.906,5.906,0,0,0,2.955-.753V22.715H71.971a.527.527,0,0,1-.464-.232.658.658,0,0,1-.174-.464.527.527,0,0,1,.232-.464.715.715,0,0,1,.464-.232h3.3A.629.629,0,0,1,75.853,21.556Zm12.691,5.795a.678.678,0,0,0,.637.464.722.722,0,0,0,.637-.232.771.771,0,0,0,.174-.464.986.986,0,0,0-.058-.406L85.7,16.689a1.04,1.04,0,0,0-.985-.7h-.174a.99.99,0,0,0-.985.7L79.33,26.714a.986.986,0,0,0-.058.406.925.925,0,0,0,.174.464.722.722,0,0,0,.637.232.678.678,0,0,0,.637-.464l1.043-2.608h5.679Zm-6.142-4,2.26-5.447,2.26,5.447Zm18.659,4.114a.629.629,0,0,1-.522.232H94.628a1.221,1.221,0,0,1-.753-.29.96.96,0,0,1-.29-.753V16.8a.565.565,0,0,1,.232-.522.708.708,0,0,1,.522-.232.629.629,0,0,1,.522.232.708.708,0,0,1,.232.522V26.25h5.447a.565.565,0,0,1,.522.232.863.863,0,0,1,.232.522A.527.527,0,0,1,101.061,27.467Zm13.154-.753-4.23-10.025a1.04,1.04,0,0,0-.985-.7h-.174a.99.99,0,0,0-.985.7l-4.23,10.025a.986.986,0,0,0-.058.406.925.925,0,0,0,.174.464.722.722,0,0,0,.637.232.678.678,0,0,0,.637-.464l1.043-2.608h5.679l1.1,2.608a.678.678,0,0,0,.637.464.722.722,0,0,0,.637-.232.771.771,0,0,0,.174-.464A.987.987,0,0,0,114.215,26.714Zm-7.533-3.361,2.26-5.447,2.26,5.447Zm20.05,3.245a.935.935,0,0,1,.174.522.708.708,0,0,1-.232.522.735.735,0,0,1-.522.232.8.8,0,0,1-.579-.29l-4.288-5.505-1.912,1.912v3.129a.565.565,0,0,1-.232.522.708.708,0,0,1-.522.232.565.565,0,0,1-.522-.232.708.708,0,0,1-.232-.522V16.747a.565.565,0,0,1,.232-.522.708.708,0,0,1,.522-.232.565.565,0,0,1,.522.232.708.708,0,0,1,.232.522V22.02l5.679-5.795a.609.609,0,0,1,.522-.29.708.708,0,0,1,.522.174.735.735,0,0,1,.232.522.47.47,0,0,1-.232.464l-3.825,3.825Zm10.257-2.086c0-.522-.348-.927-1.1-1.275-.348-.116-.7-.232-1.1-.348s-.869-.232-1.275-.348a10.813,10.813,0,0,1-1.275-.406,7.212,7.212,0,0,1-1.159-.579,2.592,2.592,0,0,1-1.1-2.2,2.836,2.836,0,0,1,1.1-2.376,4.692,4.692,0,0,1,3.187-1.043,9.876,9.876,0,0,1,3.3.522.7.7,0,0,1,.464.7.771.771,0,0,1-.174.464.437.437,0,0,1-.406.232,3.335,3.335,0,0,1-.579-.116,8.311,8.311,0,0,0-2.492-.406,4.277,4.277,0,0,0-2.086.464,1.523,1.523,0,0,0,.232,2.839,3.4,3.4,0,0,0,1.159.348,10.092,10.092,0,0,0,1.275.29,8.206,8.206,0,0,1,1.275.406,4.913,4.913,0,0,1,1.1.579,2.593,2.593,0,0,1,1.1,2.318,2.855,2.855,0,0,1-1.159,2.318,4.8,4.8,0,0,1-3.129.927,9.984,9.984,0,0,1-3.94-.811,1.537,1.537,0,0,1-.348-.29.624.624,0,0,1-.116-.464.771.771,0,0,1,.174-.464.736.736,0,0,1,.406-.232,1.3,1.3,0,0,1,.579.174,5.705,5.705,0,0,0,1.159.348,8.618,8.618,0,0,0,1.912.232C136,26.424,136.988,25.787,136.988,24.512Zm5.621,3.071a.708.708,0,0,1-.232-.522V16.747a.565.565,0,0,1,.232-.522.708.708,0,0,1,.522-.232.565.565,0,0,1,.522.232.708.708,0,0,1,.232.522V27a.565.565,0,0,1-.232.522.708.708,0,0,1-.522.232A.535.535,0,0,1,142.609,27.583ZM159.646,21.9a6.207,6.207,0,0,0-1.623-4.288,6.164,6.164,0,0,0-8.46,0A6.051,6.051,0,0,0,147.94,21.9a6.051,6.051,0,0,0,1.623,4.288,6.164,6.164,0,0,0,8.46,0A6.315,6.315,0,0,0,159.646,21.9Zm-5.853,4.52a4.026,4.026,0,0,1-3.187-1.275,4.6,4.6,0,0,1-1.1-3.245,4.6,4.6,0,0,1,1.1-3.245,4.108,4.108,0,0,1,3.187-1.275,4.026,4.026,0,0,1,3.187,1.275,4.729,4.729,0,0,1,1.159,3.245,4.628,4.628,0,0,1-1.159,3.245A3.947,3.947,0,0,1,153.793,26.424Zm20.05-9.677v9.967a.934.934,0,0,1-.348.753.959.959,0,0,1-.753.29h-.232a1.1,1.1,0,0,1-.869-.464l-6.432-9.33v8.982a.565.565,0,0,1-.232.522.708.708,0,0,1-.522.232.565.565,0,0,1-.522-.232.708.708,0,0,1-.232-.522V17.094a1.1,1.1,0,0,1,.29-.753,1.052,1.052,0,0,1,.811-.348h.232a1.193,1.193,0,0,1,.927.522l6.374,9.272v-9.04a.565.565,0,0,1,.232-.522.708.708,0,0,1,.522-.232.565.565,0,0,1,.522.232A.708.708,0,0,1,173.843,16.747Z" transform="translate(6.76 55.433)"/>
  </g>
</svg>
